<svg width="78" height="75" viewBox="0 0 78 75" fill="none" xmlns="http://www.w3.org/2000/svg">
<path d="M1.25 50H58.75V53.75H1.25V50Z" fill="#93B6F9"/>
<path d="M1.25 1.25V5H27.5V22.5H50V5H76.25V1.25H1.25Z" fill="#93B6F9"/>
<path d="M56.25 22.5H61.25V30H56.25V22.5Z" fill="#93B6F9"/>
<path d="M48.75 35H68.75V38.75H48.75V35Z" fill="#93B6F9"/>
<path d="M76.25 48.75H1.25C0.559687 48.75 0 49.3097 0 50V73.75C0 74.4403 0.559687 75 1.25 75H76.25C76.9403 75 77.5 74.4403 77.5 73.75V50C77.5 49.3097 76.9403 48.75 76.25 48.75ZM57.5 72.5H31.25V55H57.5V72.5ZM2.5 51.25H57.5V52.5H2.5V51.25ZM2.5 55H28.75V72.5H2.5V55ZM75 72.5H60V51.25H75V72.5Z" fill="#6496F7"/>
<path d="M72.5 67.5C73.1903 67.5 73.75 66.9403 73.75 66.25V58.75C73.75 58.0597 73.1903 57.5 72.5 57.5C71.8097 57.5 71.25 58.0597 71.25 58.75V66.25C71.25 66.9403 71.8097 67.5 72.5 67.5Z" fill="#6496F7"/>
<path d="M33.75 66.25C34.4403 66.25 35 65.6903 35 65V62.5C35 61.8097 34.4403 61.25 33.75 61.25C33.0597 61.25 32.5 61.8097 32.5 62.5V65C32.5 65.6903 33.0597 66.25 33.75 66.25Z" fill="#6496F7"/>
<path d="M26.25 61.25C25.5597 61.25 25 61.8097 25 62.5V65C25 65.6903 25.5597 66.25 26.25 66.25C26.9403 66.25 27.5 65.6903 27.5 65V62.5C27.5 61.8097 26.9403 61.25 26.25 61.25Z" fill="#6496F7"/>
<path d="M42.5 16.25C43.1903 16.25 43.75 15.6903 43.75 15V12.5C43.75 11.8097 43.1903 11.25 42.5 11.25C41.8097 11.25 41.25 11.8097 41.25 12.5V15C41.25 15.6903 41.8097 16.25 42.5 16.25Z" fill="#6496F7"/>
<path d="M35 11.25C34.3097 11.25 33.75 11.8097 33.75 12.5V15C33.75 15.6903 34.3097 16.25 35 16.25C35.6903 16.25 36.25 15.6903 36.25 15V12.5C36.25 11.8097 35.6903 11.25 35 11.25Z" fill="#6496F7"/>
<path d="M69.6344 34.1156L64.6344 29.1156C64.3997 28.8814 64.0816 28.7498 63.75 28.75H62.5V23.75H76.25C76.9403 23.75 77.5 23.1903 77.5 22.5V1.25C77.5 0.559687 76.9403 0 76.25 0H1.25C0.559687 0 0 0.559687 0 1.25V22.5C0 23.1903 0.559687 23.75 1.25 23.75H55V28.75H53.75C53.4184 28.7498 53.1003 28.8814 52.8656 29.1156L47.8656 34.1156C47.7938 34.1862 47.6945 34.3009 47.617 34.4647C47.5125 34.6858 47.4991 34.8875 47.5 35V38.75C47.5 39.4403 48.0597 40 48.75 40H68.75C69.4403 40 70 39.4403 70 38.75V35C69.9916 34.8831 69.9655 34.7106 69.8842 34.5181C69.8072 34.3358 69.7089 34.202 69.6344 34.1156ZM26.25 21.25H2.5V6.25H26.25V21.25ZM37.5 21.25H28.75V6.25H37.5V21.25ZM48.75 21.25H40V6.25H48.75V21.25ZM67.5 37.5H50V36.25H67.5V37.5ZM63.2328 31.25L65.7328 33.75H51.7672L54.2672 31.25H63.2328ZM57.5 28.75V23.75H60V28.75H57.5ZM75 21.25H51.25V6.25H75V21.25ZM75 3.75H2.5V2.5H75V3.75Z" fill="#6496F7"/>
</svg>
