<svg width="80" height="93" viewBox="0 0 80 93" fill="none" xmlns="http://www.w3.org/2000/svg">
<path d="M75.3846 84.6152V90.7691H69.2307L67.6923 84.6152H75.3846Z" fill="#93B6F9"/>
<path d="M12.3075 84.6152L10.7691 90.7691H4.61523V84.6152H12.3075Z" fill="#93B6F9"/>
<path d="M73.8459 50.7695V66.1541H39.9997H6.15356V50.7695H73.8459Z" fill="#93B6F9"/>
<path d="M6.15356 26.1543H73.8459V44.6158H6.15356V26.1543Z" fill="#93B6F9"/>
<path d="M6.15356 1.53906H73.8459V20.0006H6.15356V1.53906Z" fill="#93B6F9"/>
<path d="M32.3077 70.7695H35.3847V76.9234H32.3077V70.7695Z" fill="#6496F7"/>
<path d="M44.6155 70.7695H47.6924V76.9234H44.6155V70.7695Z" fill="#6496F7"/>
<path d="M78.4615 27.6923C78.8696 27.6923 79.2609 27.5302 79.5494 27.2417C79.8379 26.9532 80 26.5619 80 26.1538V20C80 19.592 79.8379 19.2007 79.5494 18.9121C79.2609 18.6236 78.8696 18.4615 78.4615 18.4615H75.3846V1.53846C75.3846 1.13044 75.2225 0.739122 74.934 0.450605C74.6455 0.162087 74.2542 0 73.8462 0H6.15385C5.74582 0 5.35451 0.162087 5.06599 0.450605C4.77747 0.739122 4.61538 1.13044 4.61538 1.53846V18.4615H1.53846C1.13044 18.4615 0.739123 18.6236 0.450605 18.9121C0.162088 19.2007 0 19.592 0 20V26.1538C0 26.5619 0.162088 26.9532 0.450605 27.2417C0.739123 27.5302 1.13044 27.6923 1.53846 27.6923H4.61538V43.0769H1.53846C1.13044 43.0769 0.739123 43.239 0.450605 43.5275C0.162088 43.816 0 44.2074 0 44.6154V50.7692C0 51.1773 0.162088 51.5686 0.450605 51.8571C0.739123 52.1456 1.13044 52.3077 1.53846 52.3077H4.61538V64.6154H1.53846C1.13044 64.6154 0.739123 64.7775 0.450605 65.066C0.162088 65.3545 0 65.7458 0 66.1538V84.6154C0 85.0234 0.162088 85.4147 0.450605 85.7032C0.739123 85.9918 1.13044 86.1538 1.53846 86.1538H3.07692V90.7692C3.07692 91.1773 3.23901 91.5686 3.52753 91.8571C3.81605 92.1456 4.20736 92.3077 4.61538 92.3077H10.7692C11.1128 92.3074 11.4464 92.1921 11.7169 91.9802C11.9873 91.7683 12.1791 91.472 12.2615 91.1385L13.5077 86.1538H66.4923L67.7385 91.1385C67.8209 91.472 68.0127 91.7683 68.2831 91.9802C68.5536 92.1921 68.8872 92.3074 69.2308 92.3077H75.3846C75.7926 92.3077 76.184 92.1456 76.4725 91.8571C76.761 91.5686 76.9231 91.1773 76.9231 90.7692V86.1538H78.4615C78.8696 86.1538 79.2609 85.9918 79.5494 85.7032C79.8379 85.4147 80 85.0234 80 84.6154V66.1538C80 65.7458 79.8379 65.3545 79.5494 65.066C79.2609 64.7775 78.8696 64.6154 78.4615 64.6154H75.3846V52.3077H78.4615C78.8696 52.3077 79.2609 52.1456 79.5494 51.8571C79.8379 51.5686 80 51.1773 80 50.7692V44.6154C80 44.2074 79.8379 43.816 79.5494 43.5275C79.2609 43.239 78.8696 43.0769 78.4615 43.0769H75.3846V27.6923H78.4615ZM7.69231 3.07692H72.3077V18.4615H7.69231V3.07692ZM9.56923 89.2308H6.15385V86.1538H10.3385L9.56923 89.2308ZM38.4615 83.0769H3.07692V67.6923H38.4615V83.0769ZM7.69231 64.6154V52.3077H72.3077V64.6154H7.69231ZM73.8462 89.2308H70.4308L69.6615 86.1538H73.8462V89.2308ZM76.9231 67.6923V83.0769H41.5385V67.6923H76.9231ZM76.9231 46.1538V49.2308H3.07692V46.1538H76.9231ZM7.69231 43.0769V27.6923H72.3077V43.0769H7.69231ZM3.07692 24.6154V21.5385H76.9231V24.6154H3.07692Z" fill="#6496F7"/>
</svg>
