<svg width="65" height="75" viewBox="0 0 65 75" fill="none" xmlns="http://www.w3.org/2000/svg">
<path d="M61.25 68.75V73.75H56.25L55 68.75H61.25Z" fill="#6496F7"/>
<path d="M10 68.75L8.75 73.75H3.75V68.75H10Z" fill="#6496F7"/>
<path d="M28.75 12.5H7.5V57.5H28.75V12.5ZM32.5 7.5V62.5H2.5V7.5H32.5Z" fill="white"/>
<path d="M32.5 62.5V7.5H62.5V62.5H32.5ZM36.25 12.5V57.5H57.5V12.5H36.25Z" fill="white"/>
<path d="M63.75 1.25V7.5H62.5H32.5H2.5H1.25V1.25H63.75Z" fill="white"/>
<path d="M65 7.5V1.25C65 0.918479 64.8683 0.600537 64.6339 0.366116C64.3995 0.131696 64.0815 0 63.75 0H1.25C0.918479 0 0.600537 0.131696 0.366117 0.366116C0.131696 0.600537 0 0.918479 0 1.25V7.5C0 7.83152 0.131696 8.14946 0.366117 8.38388C0.600537 8.6183 0.918479 8.75 1.25 8.75V61.25C0.918479 61.25 0.600537 61.3817 0.366117 61.6161C0.131696 61.8505 0 62.1685 0 62.5V68.75C0 69.0815 0.131696 69.3995 0.366117 69.6339C0.600537 69.8683 0.918479 70 1.25 70H2.5V73.75C2.5 74.0815 2.6317 74.3995 2.86612 74.6339C3.10054 74.8683 3.41848 75 3.75 75H8.75C9.02916 74.9998 9.30022 74.9061 9.51997 74.734C9.73971 74.5618 9.8955 74.321 9.9625 74.05L10.975 70H54.025L55.0375 74.05C55.1045 74.321 55.2603 74.5618 55.48 74.734C55.6998 74.9061 55.9708 74.9998 56.25 75H61.25C61.5815 75 61.8995 74.8683 62.1339 74.6339C62.3683 74.3995 62.5 74.0815 62.5 73.75V70H63.75C64.0815 70 64.3995 69.8683 64.6339 69.6339C64.8683 69.3995 65 69.0815 65 68.75V62.5C65 62.1685 64.8683 61.8505 64.6339 61.6161C64.3995 61.3817 64.0815 61.25 63.75 61.25V8.75C64.0815 8.75 64.3995 8.6183 64.6339 8.38388C64.8683 8.14946 65 7.83152 65 7.5ZM7.775 72.5H5V70H8.4L7.775 72.5ZM60 72.5H57.225L56.6 70H60V72.5ZM62.5 67.5H2.5V63.75H62.5V67.5ZM3.75 61.25V8.75H31.25V61.25H3.75ZM33.75 61.25V8.75H61.25V61.25H33.75ZM62.5 6.25H2.5V2.5H62.5V6.25Z" fill="#6496F7"/>
<path d="M28.75 11.25H7.5C7.16848 11.25 6.85054 11.3817 6.61612 11.6161C6.3817 11.8505 6.25 12.1685 6.25 12.5V57.5C6.25 57.8315 6.3817 58.1495 6.61612 58.3839C6.85054 58.6183 7.16848 58.75 7.5 58.75H28.75C29.0815 58.75 29.3995 58.6183 29.6339 58.3839C29.8683 58.1495 30 57.8315 30 57.5V12.5C30 12.1685 29.8683 11.8505 29.6339 11.6161C29.3995 11.3817 29.0815 11.25 28.75 11.25ZM27.5 56.25H8.75V13.75H27.5V56.25Z" fill="#6496F7"/>
<path d="M36.25 58.75H57.5C57.8315 58.75 58.1495 58.6183 58.3839 58.3839C58.6183 58.1495 58.75 57.8315 58.75 57.5V12.5C58.75 12.1685 58.6183 11.8505 58.3839 11.6161C58.1495 11.3817 57.8315 11.25 57.5 11.25H36.25C35.9185 11.25 35.6005 11.3817 35.3661 11.6161C35.1317 11.8505 35 12.1685 35 12.5V57.5C35 57.8315 35.1317 58.1495 35.3661 58.3839C35.6005 58.6183 35.9185 58.75 36.25 58.75ZM37.5 13.75H56.25V56.25H37.5V13.75Z" fill="#6496F7"/>
<path d="M21.25 37.5C21.9917 37.5 22.7167 37.2801 23.3334 36.868C23.9501 36.456 24.4307 35.8703 24.7145 35.1851C24.9984 34.4998 25.0726 33.7458 24.9279 33.0184C24.7832 32.291 24.4261 31.6228 23.9016 31.0984C23.3772 30.5739 22.709 30.2168 21.9816 30.0721C21.2542 29.9274 20.5002 30.0016 19.8149 30.2855C19.1297 30.5693 18.544 31.0499 18.132 31.6666C17.7199 32.2833 17.5 33.0083 17.5 33.75C17.5 34.7446 17.8951 35.6984 18.5983 36.4017C19.3016 37.1049 20.2554 37.5 21.25 37.5ZM21.25 32.5C21.4972 32.5 21.7389 32.5733 21.9445 32.7107C22.15 32.848 22.3102 33.0432 22.4048 33.2717C22.4995 33.5001 22.5242 33.7514 22.476 33.9939C22.4277 34.2363 22.3087 34.4591 22.1339 34.6339C21.9591 34.8087 21.7363 34.9278 21.4939 34.976C21.2514 35.0242 21.0001 34.9995 20.7716 34.9049C20.5432 34.8102 20.348 34.65 20.2107 34.4445C20.0733 34.2389 20 33.9972 20 33.75C20 33.4185 20.1317 33.1005 20.3661 32.8661C20.6005 32.6317 20.9185 32.5 21.25 32.5Z" fill="#6496F7"/>
<path d="M43.75 30C43.0083 30 42.2833 30.2199 41.6666 30.632C41.0499 31.044 40.5693 31.6297 40.2855 32.3149C40.0016 33.0002 39.9274 33.7542 40.0721 34.4816C40.2168 35.209 40.5739 35.8772 41.0984 36.4017C41.6228 36.9261 42.291 37.2833 43.0184 37.428C43.7458 37.5726 44.4998 37.4984 45.1851 37.2146C45.8703 36.9307 46.456 36.4501 46.868 35.8334C47.2801 35.2167 47.5 34.4917 47.5 33.75C47.5 32.7554 47.1049 31.8016 46.4017 31.0983C45.6984 30.3951 44.7446 30 43.75 30ZM43.75 35C43.5028 35 43.2611 34.9267 43.0555 34.7893C42.85 34.652 42.6898 34.4568 42.5952 34.2284C42.5005 33.9999 42.4758 33.7486 42.524 33.5061C42.5723 33.2637 42.6913 33.0409 42.8661 32.8661C43.0409 32.6913 43.2637 32.5723 43.5061 32.524C43.7486 32.4758 43.9999 32.5005 44.2284 32.5952C44.4568 32.6898 44.652 32.85 44.7893 33.0555C44.9267 33.2611 45 33.5028 45 33.75C45 34.0815 44.8683 34.3995 44.6339 34.6339C44.3995 34.8683 44.0815 35 43.75 35Z" fill="#6496F7"/>
</svg>
