<svg width="110" height="71" viewBox="0 0 110 71" fill="none" xmlns="http://www.w3.org/2000/svg">
<path d="M24.8387 31.0476C24.8387 30.3418 25.1191 29.6649 25.6182 29.1658C26.1173 28.6667 26.7942 28.3863 27.5 28.3863H47.0162C47.722 28.3863 48.3989 28.6667 48.898 29.1658C49.3971 29.6649 49.6775 30.3418 49.6775 31.0476V39.0315H60.3226V31.0476C60.3226 30.3418 60.603 29.6649 61.1021 29.1658C61.6012 28.6667 62.2781 28.3863 62.9839 28.3863H82.5C83.2058 28.3863 83.8828 28.6667 84.3819 29.1658C84.8809 29.6649 85.1613 30.3418 85.1613 31.0476V39.0315H94.0323V6.20892C94.0325 5.6264 93.9179 5.04955 93.695 4.51133C93.4722 3.97311 93.1455 3.48408 92.7336 3.07217C92.3216 2.66026 91.8326 2.33356 91.2944 2.11071C90.7562 1.88787 90.1793 1.77326 89.5968 1.77344H20.4033C19.8207 1.77326 19.2439 1.88787 18.7057 2.11071C18.1674 2.33356 17.6784 2.66026 17.2665 3.07217C16.8546 3.48408 16.5279 3.97311 16.305 4.51133C16.0822 5.04955 15.9676 5.6264 15.9678 6.20892V39.0315H24.8387V31.0476Z" fill="#93B6F9"/>
<path d="M1.77417 55V62.0968V69.1935H7.09675L8.87094 62.0968H101.129L102.903 69.1935H108.226V62.0968V55H1.77417Z" fill="white"/>
<path d="M108.226 53.2258H102.903V43.4677C102.901 41.8214 102.247 40.243 101.082 39.0788C99.9183 37.9147 98.3399 37.2599 96.6936 37.2581H95.8064V6.20968C95.8046 4.56333 95.1498 2.98493 93.9857 1.82078C92.8215 0.656637 91.2431 0.00181972 89.5968 0H20.4032C18.7569 0.00181972 17.1785 0.656637 16.0143 1.82078C14.8502 2.98493 14.1954 4.56333 14.1935 6.20968V37.2581H13.3065C11.6601 37.2599 10.0817 37.9147 8.91756 39.0788C7.75341 40.243 7.09859 41.8214 7.09677 43.4677V53.2258H1.77419C1.30365 53.2258 0.852375 53.4127 0.519649 53.7454C0.186923 54.0782 0 54.5294 0 55V69.1935C0 69.6641 0.186923 70.1154 0.519649 70.4481C0.852375 70.7808 1.30365 70.9677 1.77419 70.9677H7.09677C7.49241 70.9677 7.87668 70.8354 8.1885 70.5919C8.50032 70.3484 8.7218 70.0076 8.81774 69.6238L10.2571 63.871H99.7429L101.182 69.6238C101.278 70.0076 101.5 70.3484 101.812 70.5919C102.123 70.8354 102.508 70.9677 102.903 70.9677H108.226C108.696 70.9677 109.148 70.7808 109.48 70.4481C109.813 70.1154 110 69.6641 110 69.1935V55C110 54.5294 109.813 54.0782 109.48 53.7454C109.148 53.4127 108.696 53.2258 108.226 53.2258ZM17.7419 6.20968C17.7425 5.50404 18.0231 4.82747 18.5221 4.32851C19.021 3.82955 19.6976 3.54897 20.4032 3.54839H89.5968C90.3024 3.54897 90.979 3.82955 91.4779 4.32851C91.9769 4.82747 92.2575 5.50404 92.2581 6.20968V37.2581H86.9355V31.0484C86.9343 29.8724 86.4666 28.7449 85.6351 27.9133C84.8035 27.0818 83.676 26.6141 82.5 26.6129H62.9839C61.8079 26.6141 60.6804 27.0818 59.8488 27.9133C59.0172 28.7449 58.5496 29.8724 58.5484 31.0484V37.2581H51.4516V31.0484C51.4504 29.8724 50.9828 28.7449 50.1512 27.9133C49.3196 27.0818 48.1921 26.6141 47.0161 26.6129H27.5C26.324 26.6141 25.1965 27.0818 24.3649 27.9133C23.5334 28.7449 23.0657 29.8724 23.0645 31.0484V37.2581H17.7419V6.20968ZM83.3871 31.0484V37.2581H62.0968V31.0484C62.0968 30.8131 62.1902 30.5875 62.3566 30.4211C62.523 30.2547 62.7486 30.1613 62.9839 30.1613H82.5C82.7353 30.1613 82.9609 30.2547 83.1273 30.4211C83.2936 30.5875 83.3871 30.8131 83.3871 31.0484ZM47.9032 31.0484V37.2581H26.6129V31.0484C26.6129 30.8131 26.7064 30.5875 26.8727 30.4211C27.0391 30.2547 27.2647 30.1613 27.5 30.1613H47.0161C47.2514 30.1613 47.477 30.2547 47.6434 30.4211C47.8098 30.5875 47.9032 30.8131 47.9032 31.0484ZM10.6452 43.4677C10.6457 42.7621 10.9263 42.0855 11.4253 41.5866C11.9242 41.0876 12.6008 40.807 13.3065 40.8064H96.6936C97.3992 40.807 98.0758 41.0876 98.5747 41.5866C99.0737 42.0855 99.3542 42.7621 99.3548 43.4677V53.2258H10.6452V43.4677ZM5.71069 67.4193H3.54839V63.871H6.59778L5.71069 67.4193ZM106.452 67.4193H104.289L103.402 63.871H106.452V67.4193ZM106.452 60.3226H3.54839V56.7742H106.452V60.3226Z" fill="#6496F7"/>
</svg>
