<svg width="80" height="80" viewBox="0 0 80 80" fill="none" xmlns="http://www.w3.org/2000/svg">
<path d="M27.8399 77.1862C27.879 77.5634 27.7563 77.9399 27.5024 78.2219C27.2479 78.5045 26.8865 78.6656 26.5069 78.6656H13.493C13.1133 78.6656 12.752 78.5045 12.4975 78.2219C12.2436 77.9399 12.1209 77.5634 12.16 77.1862L14.6667 54.666H25.3332L27.8399 77.1862Z" fill="#93B6F9"/>
<path d="M68 42.666C66.5291 42.6703 65.3376 43.8617 65.3334 45.3326V67.9993C65.3315 68.7347 64.7358 69.3304 64.0004 69.3329H53.3333C52.5978 69.3304 52.0021 68.7347 52.0002 67.9993V45.3326C52.0045 43.8617 53.1959 42.6703 54.6669 42.666H68Z" fill="#93B6F9"/>
<path d="M78.6663 2.66699V28.0002H62.6665V1.33398H77.3333C78.0687 1.33582 78.6644 1.93152 78.6663 2.66699Z" fill="#93B6F9"/>
<path d="M62.6666 1.33398V28.0002H46.6669V2.66699C46.6687 1.93152 47.2644 1.33582 47.9999 1.33398H62.6666Z" fill="#93B6F9"/>
<path d="M26.6669 55.9998H13.3331C5.9729 55.9918 0.00854492 50.0269 0 42.6666V41.3336C0 40.5969 0.596924 40 1.33362 40H38.6664C39.4031 40 40 40.5969 40 41.3336V42.6666C39.9915 50.0269 34.0271 55.9918 26.6669 55.9998ZM2.66663 42.6666C2.67334 48.5547 7.44507 53.3264 13.3331 53.3331H26.6669C32.5549 53.3264 37.3267 48.5547 37.3334 42.6666H2.66663Z" fill="#6496F7"/>
<path d="M9.3335 48.0006H2.02637C1.29028 48.0006 0.693359 47.4037 0.693359 46.6676C0.693359 45.9309 1.29028 45.334 2.02637 45.334H9.3335C10.0696 45.334 10.6665 45.9309 10.6665 46.6676C10.6665 47.4037 10.0696 48.0006 9.3335 48.0006Z" fill="#6496F7"/>
<path d="M15.9996 48.0006H14.6666C13.9299 48.0006 13.333 47.4037 13.333 46.6676C13.333 45.9309 13.9299 45.334 14.6666 45.334H15.9996C16.7363 45.334 17.3333 45.9309 17.3333 46.6676C17.3333 47.4037 16.7363 48.0006 15.9996 48.0006Z" fill="#6496F7"/>
<path d="M27.9997 80.0009H12C11.6209 80.0009 11.2596 79.8397 11.0063 79.5571C10.7536 79.2745 10.6328 78.8979 10.6743 78.5208L13.3409 54.5211C13.416 53.8455 13.9867 53.334 14.6666 53.334H25.3331C26.013 53.334 26.5837 53.8455 26.6588 54.5211L29.3254 78.5208C29.3669 78.8979 29.2461 79.2745 28.9934 79.5571C28.7401 79.8397 28.3787 80.0009 27.9997 80.0009ZM13.4892 77.3342H26.5105L24.1392 56.0006H15.8604L13.4892 77.3342Z" fill="#6496F7"/>
<path d="M15.9998 42.6671C15.2637 42.6671 14.6667 42.0702 14.6667 41.3341V33.3336C14.6692 31.126 16.4587 29.3364 18.6664 29.334H20C22.2083 29.3364 23.9978 31.126 24.0002 33.3336C24.0002 34.0703 23.4033 34.6672 22.6666 34.6672C21.9305 34.6672 21.3336 34.0703 21.3336 33.3336C21.3324 32.5975 20.7361 32.0012 20 32.0006H18.6664C17.9303 32.0012 17.334 32.5975 17.3334 33.3336V41.3341C17.3334 41.6875 17.193 42.0269 16.9427 42.2765C16.6925 42.5267 16.3538 42.6671 15.9998 42.6671Z" fill="#6496F7"/>
<path d="M13.5455 2.78137C13.8293 3.42896 14.5629 3.74878 15.23 3.51562C16.7663 2.98523 18.3758 2.69897 19.9999 2.66663V0C18.0639 0.0323486 16.1456 0.372925 14.3176 1.01013C13.9727 1.13281 13.6938 1.39343 13.5479 1.72852C13.4014 2.06421 13.4008 2.44507 13.5455 2.78137Z" fill="#6496F7"/>
<path d="M20.0001 42.6677V40.0011C18.4254 39.9706 16.8641 39.7008 15.37 39.2021C13.8844 38.6485 12.4867 37.8838 11.2202 36.9304C8.68723 34.9278 6.72922 32.2911 5.54392 29.2876C3.09091 23.17 3.60666 16.2621 6.93979 10.5766L7.61667 9.53173C8.01401 8.94457 7.89194 8.14989 7.33652 7.70922C7.04966 7.484 6.68222 7.38756 6.32212 7.4431C5.9614 7.49864 5.64035 7.70067 5.43405 8.00096L4.66074 9.19359C0.887546 15.5986 0.300998 23.3922 3.0726 30.2898C4.43613 33.7328 6.6865 36.754 9.59543 39.0453C11.0853 40.1695 12.732 41.0698 14.4831 41.7168C16.2623 42.3162 18.1233 42.6372 20.0001 42.6677Z" fill="#6496F7"/>
<path d="M10.9868 5.92335C11.2389 5.71094 11.4085 5.41736 11.4665 5.09266L11.4763 4.8418C11.4732 4.75269 11.4592 4.66358 11.4342 4.57752C11.422 4.4939 11.3976 4.41212 11.3622 4.33521C11.3249 4.25403 11.2822 4.1753 11.234 4.09962C11.032 3.80665 10.7195 3.60828 10.3685 3.5503C10.1848 3.52955 9.99924 3.54359 9.82041 3.59241C9.27231 3.75172 8.87314 4.22474 8.80966 4.79175C8.79013 5.14393 8.91098 5.48878 9.14536 5.75184C9.39133 6.00452 9.71665 6.16566 10.0664 6.20716C10.3984 6.23646 10.7286 6.13453 10.9868 5.92335Z" fill="#6496F7"/>
<path d="M19.9999 42.6666C19.2638 42.6666 18.6663 42.0697 18.6663 41.3336C18.6663 40.5969 19.2638 40 19.9999 40C28.8225 40 35.9996 31.6266 35.9996 21.3336C35.9996 11.04 28.8225 2.66663 19.9999 2.66663C19.2638 2.66663 18.6663 2.0697 18.6663 1.33362C18.6663 0.596924 19.2638 0 19.9999 0C30.2935 0 38.6663 9.57031 38.6663 21.3336C38.6663 33.0963 30.2935 42.6666 19.9999 42.6666Z" fill="#6496F7"/>
<path d="M10.6664 14.6669C10.1275 14.6669 9.64162 14.3416 9.43471 13.8435C9.22841 13.3455 9.34255 12.7724 9.72402 12.3909L15.0573 7.05765C15.3917 6.71097 15.888 6.57181 16.3537 6.69388C16.82 6.81595 17.1843 7.17972 17.3064 7.64603C17.4279 8.11234 17.2893 8.60795 16.9426 8.94303L11.6094 14.2763C11.3598 14.5265 11.0204 14.6675 10.6664 14.6669Z" fill="#6496F7"/>
<path d="M9.33341 24.0004C8.79386 23.9998 8.30802 23.6751 8.10173 23.177C7.89543 22.679 8.00956 22.1053 8.39042 21.7244L23.0572 7.05765C23.3923 6.71097 23.8879 6.57181 24.3542 6.69388C24.8199 6.81595 25.1842 7.17972 25.3063 7.64603C25.4284 8.11234 25.2892 8.60795 24.9425 8.94303L10.2758 23.6098C10.0262 23.86 9.68681 24.0004 9.33341 24.0004Z" fill="#6496F7"/>
<path d="M46.6669 51.9999C45.9302 51.9999 45.3333 51.403 45.3333 50.6663V45.333C45.3333 44.5969 45.9302 44 46.6669 44C47.403 44 47.9999 44.5969 47.9999 45.333V50.6663C47.9999 51.403 47.403 51.9999 46.6669 51.9999Z" fill="#6496F7"/>
<path d="M75.9998 51.9999C75.2637 51.9999 74.6667 51.403 74.6667 50.6663V45.333C74.6667 44.5969 75.2637 44 75.9998 44C76.7364 44 77.3334 44.5969 77.3334 45.333V50.6663C77.3334 51.403 76.7364 51.9999 75.9998 51.9999Z" fill="#6496F7"/>
<path d="M78.6664 49.3326H65.3333C64.5972 49.3326 64.0002 48.7357 64.0002 47.999C64.0002 47.2629 64.5972 46.666 65.3333 46.666H78.6664C79.4031 46.666 80 47.2629 80 47.999C80 48.7357 79.4031 49.3326 78.6664 49.3326Z" fill="#6496F7"/>
<path d="M52 49.3326H44.0001C43.2634 49.3326 42.6665 48.7357 42.6665 47.999C42.6665 47.2629 43.2634 46.666 44.0001 46.666H52C52.7361 46.666 53.333 47.2629 53.333 47.999C53.333 48.7357 52.7361 49.3326 52 49.3326Z" fill="#6496F7"/>
<path d="M64.0002 70.6669H53.3331C51.8616 70.665 50.6683 69.4724 50.6665 68.0002V45.3336C50.6689 43.1254 52.4585 41.3364 54.6667 41.334H67.9999C68.7366 41.334 69.3335 41.9309 69.3335 42.667C69.3335 43.4037 68.7366 44.0006 67.9999 44.0006H54.6667C53.9307 44.0012 53.3337 44.5975 53.3331 45.3336V68.0002H64.0002V48.0002C64.0002 47.2642 64.5972 46.6672 65.3333 46.6672C66.0699 46.6672 66.6669 47.2642 66.6669 48.0002V68.0002C66.665 69.4724 65.4718 70.665 64.0002 70.6669Z" fill="#6496F7"/>
<path d="M69.3335 66.6672H65.3333C64.5972 66.6672 64.0002 66.0703 64.0002 65.3336C64.0002 64.5975 64.5972 64.0006 65.3333 64.0006H69.3335V45.3336C69.3335 44.5975 68.7366 44.0006 67.9999 44.0006C67.2638 44.0006 66.6669 44.5975 66.6669 45.3336V48.0002C66.6669 48.7369 66.0699 49.3339 65.3333 49.3339C64.5972 49.3339 64.0002 48.7369 64.0002 48.0002V45.3336C64.0002 43.1248 65.791 41.334 67.9999 41.334C70.2094 41.334 72.0001 43.1248 72.0001 45.3336V64.0006C71.9983 65.4722 70.8057 66.6654 69.3335 66.6672Z" fill="#6496F7"/>
<path d="M77.3334 37.3334H47.9999C46.5277 37.3315 45.3351 36.1389 45.3333 34.6667V2.66663C45.3351 1.19446 46.5277 0.00183106 47.9999 0H77.3334C78.8055 0.00183106 79.9982 1.19446 80 2.66663V34.6667C79.9982 36.1389 78.8055 37.3315 77.3334 37.3334ZM47.9999 2.66663V34.6667H77.3346L77.3334 2.66663H47.9999Z" fill="#6496F7"/>
<path d="M78.6664 29.3326H46.6669C45.9302 29.3326 45.3333 28.7357 45.3333 27.999C45.3333 27.2629 45.9302 26.666 46.6669 26.666H78.6664C79.4031 26.666 80 27.2629 80 27.999C80 28.7357 79.4031 29.3326 78.6664 29.3326Z" fill="#6496F7"/>
<path d="M62.6666 29.3335C61.9305 29.3335 61.3336 28.7366 61.3336 27.9999V1.33362C61.3336 0.596924 61.9305 0 62.6666 0C63.4033 0 64.0002 0.596924 64.0002 1.33362V27.9999C64.0002 28.7366 63.4033 29.3335 62.6666 29.3335Z" fill="#6496F7"/>
<path d="M58.6665 16.0006H57.3335C56.5968 16.0006 55.9999 15.4037 55.9999 14.6676C55.9999 13.9309 56.5968 13.334 57.3335 13.334H58.6665C59.4032 13.334 60.0001 13.9309 60.0001 14.6676C60.0001 15.4037 59.4032 16.0006 58.6665 16.0006Z" fill="#6496F7"/>
<path d="M67.9999 16.0006H66.6669C65.9302 16.0006 65.3333 15.4037 65.3333 14.6676C65.3333 13.9309 65.9302 13.334 66.6669 13.334H67.9999C68.7366 13.334 69.3335 13.9309 69.3335 14.6676C69.3335 15.4037 68.7366 16.0006 67.9999 16.0006Z" fill="#6496F7"/>
</svg>
