<svg width="110" height="82" viewBox="0 0 110 82" fill="none" xmlns="http://www.w3.org/2000/svg">
<path d="M28.3871 74.5176H10.6451H1.77417V79.8402H108.226V74.5176H28.3871Z" fill="#93B6F9"/>
<path d="M30.1611 1.77539H8.87075L7.09656 28.3883H31.9353L30.1611 1.77539Z" fill="#93B6F9"/>
<path d="M62.0966 7.09766H83.3869V19.517H62.0966V7.09766Z" fill="#93B6F9"/>
<path d="M47.0162 69.1934H98.4678C99.0503 69.1936 99.6272 69.079 100.165 68.8561C100.704 68.6333 101.193 68.3066 101.605 67.8947C102.016 67.4828 102.343 66.9937 102.566 66.4555C102.789 65.9173 102.903 65.3405 102.903 64.7579V50.5644C102.903 49.9819 102.789 49.405 102.566 48.8668C102.343 48.3286 102.016 47.8395 101.605 47.4276C101.193 47.0157 100.704 46.689 100.165 46.4662C99.6272 46.2433 99.0503 46.1287 98.4678 46.1289H96.6936C96.1111 46.1287 95.5342 46.2433 94.996 46.4662C94.4578 46.689 93.9688 47.0157 93.5568 47.4276C93.1449 47.8395 92.8182 48.3286 92.5954 48.8668C92.3725 49.405 92.2579 49.9819 92.2581 50.5644V58.5483H53.2259V50.5644C53.226 49.9819 53.1114 49.405 52.8886 48.8668C52.6657 48.3286 52.339 47.8395 51.9271 47.4276C51.5152 47.0157 51.0262 46.689 50.488 46.4662C49.9497 46.2433 49.3729 46.1287 48.7904 46.1289H47.0162C46.4336 46.1287 45.8568 46.2433 45.3186 46.4662C44.7804 46.689 44.2913 47.0157 43.8794 47.4276C43.4675 47.8395 43.1408 48.3286 42.918 48.8668C42.6951 49.405 42.5805 49.9819 42.5807 50.5644V64.7579C42.5805 65.3405 42.6951 65.9173 42.918 66.4555C43.1408 66.9937 43.4675 67.4828 43.8794 67.8947C44.2913 68.3066 44.7804 68.6333 45.3186 68.8561C45.8568 69.079 46.4336 69.1936 47.0162 69.1934Z" fill="#93B6F9"/>
<path d="M108.226 72.7419H101.129V70.3667C102.19 69.8627 103.086 69.0683 103.715 68.0757C104.343 67.083 104.676 65.9327 104.677 64.7581V50.5645C104.675 49.072 104.136 47.6299 103.159 46.5017C102.182 45.3735 100.832 44.6343 99.3548 44.4192V38.1452C99.353 36.4988 98.6982 34.9204 97.534 33.7563C96.3699 32.5921 94.7915 31.9373 93.1452 31.9355H52.3387C50.6924 31.9373 49.114 32.5921 47.9498 33.7563C46.7857 34.9204 46.1309 36.4988 46.129 38.1452V44.4192C44.6521 44.6343 43.3017 45.3735 42.3246 46.5017C41.3474 47.6299 40.8086 49.072 40.8064 50.5645V64.7581C40.8086 66.2506 41.3474 67.6926 42.3246 68.8209C43.3017 69.9491 44.6521 70.6882 46.129 70.9034V72.7419H30.1613V67.4194C30.1613 66.9488 29.9744 66.4975 29.6416 66.1648C29.3089 65.8321 28.8576 65.6452 28.3871 65.6452H21.2903V30.1613H31.9355C32.1784 30.1614 32.4188 30.1117 32.6416 30.0151C32.8645 29.9184 33.0651 29.7771 33.2311 29.5997C33.397 29.4223 33.5248 29.2127 33.6063 28.9839C33.6879 28.7551 33.7216 28.5119 33.7052 28.2696L31.931 1.65665C31.9012 1.20754 31.7018 0.786541 31.3732 0.478942C31.0446 0.171343 30.6114 0.000136408 30.1613 0H8.87097C8.42086 0.000136408 7.98763 0.171343 7.65903 0.478942C7.33043 0.786541 7.13103 1.20754 7.10121 1.65665L5.32702 28.2696C5.3107 28.5119 5.34436 28.7551 5.42593 28.9839C5.50749 29.2127 5.63522 29.4223 5.80117 29.5997C5.96712 29.7771 6.16776 29.9184 6.39063 30.0151C6.61351 30.1117 6.85386 30.1614 7.09677 30.1613H17.7419V65.6452H10.6452C10.1746 65.6452 9.72334 65.8321 9.39062 66.1648C9.05789 66.4975 8.87097 66.9488 8.87097 67.4194V72.7419H1.77419C1.30365 72.7419 0.852375 72.9289 0.519649 73.2616C0.186923 73.5943 0 74.0456 0 74.5161V79.8387C0 80.3093 0.186923 80.7605 0.519649 81.0933C0.852375 81.426 1.30365 81.6129 1.77419 81.6129H108.226C108.696 81.6129 109.148 81.426 109.48 81.0933C109.813 80.7605 110 80.3093 110 79.8387V74.5161C110 74.0456 109.813 73.5943 109.48 73.2616C109.148 72.9289 108.696 72.7419 108.226 72.7419ZM49.6774 38.1452C49.678 37.4395 49.9586 36.763 50.4575 36.264C50.9565 35.765 51.6331 35.4845 52.3387 35.4839H93.1452C93.8508 35.4845 94.5274 35.765 95.0263 36.264C95.5253 36.763 95.8059 37.4395 95.8064 38.1452V44.4192C94.3295 44.6343 92.9792 45.3735 92.002 46.5017C91.0248 47.6299 90.486 49.072 90.4839 50.5645V56.7742H55V50.5645C54.9979 49.072 54.459 47.6299 53.4819 46.5017C52.5047 45.3735 51.1544 44.6343 49.6774 44.4192V38.1452ZM44.3548 64.7581V50.5645C44.3554 49.8589 44.636 49.1823 45.135 48.6833C45.6339 48.1844 46.3105 47.9038 47.0161 47.9032H48.7903C49.496 47.9038 50.1725 48.1844 50.6715 48.6833C51.1705 49.1823 51.451 49.8589 51.4516 50.5645V58.5484C51.4516 59.0189 51.6385 59.4702 51.9713 59.8029C52.304 60.1357 52.7553 60.3226 53.2258 60.3226H92.2581C92.7286 60.3226 93.1799 60.1357 93.5126 59.8029C93.8453 59.4702 94.0323 59.0189 94.0323 58.5484V50.5645C94.0328 49.8589 94.3134 49.1823 94.8124 48.6833C95.3113 48.1844 95.9879 47.9038 96.6936 47.9032H98.4677C99.1734 47.9038 99.8499 48.1844 100.349 48.6833C100.848 49.1823 101.128 49.8589 101.129 50.5645V64.7581C101.128 65.4637 100.848 66.1403 100.349 66.6392C99.8499 67.1382 99.1734 67.4188 98.4677 67.4194H47.0161C46.3105 67.4188 45.6339 67.1382 45.135 66.6392C44.636 66.1403 44.3554 65.4637 44.3548 64.7581ZM97.5806 70.9677V72.7419H94.0323V70.9677H97.5806ZM90.4839 70.9677V72.7419H56.7742V70.9677H90.4839ZM53.2258 70.9677V72.7419H49.6774V70.9677H53.2258ZM8.99294 26.6129L10.5298 3.54839H28.5024L30.0393 26.6129H8.99294ZM12.4194 69.1936H26.6129V72.7419H12.4194V69.1936ZM106.452 78.0645H3.54839V76.2903H106.452V78.0645Z" fill="#6496F7"/>
<path d="M56.7742 26.6129H88.7097C89.1802 26.6129 89.6315 26.426 89.9642 26.0933C90.2969 25.7605 90.4839 25.3093 90.4839 24.8387V1.77419C90.4839 1.30365 90.2969 0.852375 89.9642 0.51965C89.6315 0.186924 89.1802 0 88.7097 0H56.7742C56.3036 0 55.8524 0.186924 55.5196 0.51965C55.1869 0.852375 55 1.30365 55 1.77419V24.8387C55 25.3093 55.1869 25.7605 55.5196 26.0933C55.8524 26.426 56.3036 26.6129 56.7742 26.6129ZM58.5484 3.54839H86.9355V23.0645H58.5484V3.54839Z" fill="#6496F7"/>
<path d="M83.3869 5.32227H62.0966C61.626 5.32227 61.1748 5.50919 60.842 5.84192C60.5093 6.17464 60.3224 6.62591 60.3224 7.09646V19.5158C60.3224 19.9864 60.5093 20.4376 60.842 20.7704C61.1748 21.1031 61.626 21.29 62.0966 21.29H83.3869C83.8574 21.29 84.3087 21.1031 84.6414 20.7704C84.9742 20.4376 85.1611 19.9864 85.1611 19.5158V7.09646C85.1611 6.62591 84.9742 6.17464 84.6414 5.84192C84.3087 5.50919 83.8574 5.32227 83.3869 5.32227ZM81.6127 17.7416H63.8708V8.87065H81.6127V17.7416Z" fill="#6496F7"/>
</svg>
